<svg width="10" height="17" viewBox="0 0 10 17" fill="none" xmlns="http://www.w3.org/2000/svg">
<path d="M0.752241 16.6199C0.541437 16.4091 0.436035 16.1595 0.436035 15.8711C0.436035 15.5833 0.541437 15.334 0.752241 15.1232L6.92879 8.94664L0.73116 2.74901C0.53441 2.55226 0.436035 2.30633 0.436035 2.0112C0.436035 1.71608 0.541437 1.46311 0.752241 1.25231C0.963044 1.0415 1.21264 0.936102 1.50101 0.936102C1.78883 0.936102 2.03814 1.0415 2.24895 1.25231L9.33195 8.35639C9.41627 8.44071 9.47614 8.53206 9.51155 8.63044C9.5464 8.72881 9.56383 8.83421 9.56383 8.94664C9.56383 9.05907 9.5464 9.16447 9.51155 9.26285C9.47614 9.36122 9.41627 9.45257 9.33195 9.53689L2.22787 16.641C2.03112 16.8377 1.78883 16.9361 1.50101 16.9361C1.21264 16.9361 0.963044 16.8307 0.752241 16.6199Z" fill="white"/>
</svg>
